<svg width="36" height="36" viewBox="0 0 36 36" fill="none" xmlns="http://www.w3.org/2000/svg">
<path d="M16.3869 10.8244L11.7373 6.17479C11.4166 5.85413 11.3685 6.01446 11.0479 6.33512L6.23793 10.9526C6.11538 11.0738 6.03516 11.2313 6.00917 11.4017C5.98318 11.5721 6.0128 11.7464 6.09364 11.8986C6.3181 12.3475 6.68686 13.053 7.03959 13.6302C8.85677 16.5926 11.0087 19.3363 13.4528 21.807C15.9192 24.2793 18.663 26.4582 21.6297 28.3004C22.2069 28.6531 22.9123 29.0219 23.3612 29.2464C23.5135 29.3272 23.6877 29.3568 23.8581 29.3308C24.0285 29.3048 24.186 29.2246 24.3072 29.1021L28.9247 24.2921C29.2454 23.9715 29.566 23.9234 29.2454 23.6027L24.7561 19.1135C24.4996 18.8569 24.4194 18.9531 24.1148 19.1135L21.3892 21.8872C21.2583 21.9734 21.105 22.0193 20.9483 22.0193C20.7915 22.0193 20.6383 21.9734 20.5074 21.8872C19.2151 20.8868 17.9787 19.8164 16.8037 18.6806C15.7441 17.5651 14.7587 16.3814 13.8536 15.1373C13.7707 14.9761 13.7274 14.7975 13.7274 14.6162C13.7274 14.4349 13.7707 14.2563 13.8536 14.0951L16.2105 11.145C16.3708 10.8404 16.6434 11.0809 16.3869 10.8244Z" stroke="#FAFAFA" stroke-miterlimit="10"/>
</svg>
