<svg width="37" height="36" viewBox="0 0 37 36" fill="none" xmlns="http://www.w3.org/2000/svg">
<path d="M18.5 4.97991C20.8463 4.93796 23.1134 5.82799 24.8046 7.4549C26.4957 9.08181 27.4727 11.3129 27.5215 13.659C27.5215 18.8645 20.7212 27.7099 18.4707 30.4985C16.1908 27.8762 9.4785 19.6374 9.4785 13.659C9.52733 11.3129 10.5044 9.08181 12.1955 7.4549C13.8866 5.82799 16.1538 4.93796 18.5 4.97991V4.97991ZM18.5 4.00144C15.8935 3.95693 13.376 4.9492 11.5009 6.76015C9.62569 8.5711 8.54633 11.0525 8.50002 13.659C8.50002 21.2911 18.5 32.0054 18.5 32.0054C18.5 32.0054 28.5 20.2637 28.5 13.659C28.4537 11.0525 27.3744 8.5711 25.4992 6.76015C23.624 4.9492 21.1065 3.95693 18.5 4.00144V4.00144Z" fill="white"/>
<path d="M18.8089 12.2651H18.1912C17.4897 12.2651 16.9211 12.8338 16.9211 13.5352V14.1529C16.9211 14.8544 17.4897 15.423 18.1912 15.423H18.8089C19.5103 15.423 20.079 14.8544 20.079 14.1529V13.5352C20.079 12.8338 19.5103 12.2651 18.8089 12.2651Z" fill="white"/>
</svg>
