<svg xmlns="http://www.w3.org/2000/svg" width="122" height="44" fill="none" class="TopHeader_pcicon__dsE4L"><path fill="#1C1C1C" d="M84.126 43.217 67.451.783H56.983L40.297 43.217H51.05L62.21 9.932l11.172 33.285h10.743Z"></path><path fill="#1C1C1C" d="M66.629 28.74h-8.832v8.56h8.832v-8.56ZM33.723 17.358c.11 2.494.495 5.271 1.637 6.938l1.329-1.213c-.209-.318-.703-1.055-1.032-2.472a17.72 17.72 0 0 1-.418-3.457l-1.516.215v-.011Zm-2.955 6.926c.923-1.156 1.703-4.047 1.703-6.926l-1.472-.16c-.011.568-.055 1.905-.418 3.527-.197.884-.516 1.723-1.054 2.414l1.241 1.157v-.012ZM38.15.783v42.434h-9.37V25.18H9.359v18.037H0V.783h9.359v15.962H28.78V.783h9.37ZM93.234 17.199h-1.472v7.074c.296 0 1.054 0 1.889-.42 1.79-.918 2.12-2.766 2.24-3.469l-1.405-.77c-.099.725-.275 2.12-1.252 2.584v-5Zm-2.373.272h-1.483v1.882c0 .578 0 1.145-.187 2.063-.209 1.032-.56 1.451-.813 1.746l1.165 1.338c1.285-1.35 1.318-3.99 1.318-5.26V17.47Zm31.142 17.085v8.661H87.609V.783h8.656v33.773h25.738Z"></path></svg>