<svg width="24" height="24" viewBox="0 0 24 24" fill="none" xmlns="http://www.w3.org/2000/svg">
<path fill-rule="evenodd" clip-rule="evenodd" d="M4.91429 5.90909V19.0909H19.0857V5.90909H4.91429ZM4.45714 5C4.20467 5 4 5.20351 4 5.45455V19.5455C4 19.7965 4.20467 20 4.45714 20H19.5429C19.7953 20 20 19.7965 20 19.5455V5.45455C20 5.20351 19.7953 5 19.5429 5H4.45714Z" fill="#fff"/>
<path d="M9.80909 10.9253C9.63995 10.9253 9.50327 10.7854 9.51572 10.6167C9.5455 10.2134 9.60962 9.89735 9.70807 9.66842C9.8304 9.3763 10.0261 9.11878 10.2952 8.89585C10.5643 8.66523 10.862 8.49611 11.1882 8.38848C11.5225 8.28086 11.8732 8.22705 12.2402 8.22705C12.9823 8.22705 13.598 8.43461 14.0873 8.84972C14.5847 9.25715 14.8335 9.80295 14.8335 10.4871C14.8335 10.7946 14.7682 11.0752 14.6377 11.3289C14.5154 11.5749 14.2463 11.8862 13.8304 12.2629C13.4226 12.6319 13.1495 12.8971 13.0108 13.0585C12.8803 13.2123 12.7784 13.4006 12.705 13.6235C12.659 13.7752 12.6313 13.9651 12.6218 14.1932C12.6147 14.3613 12.481 14.4999 12.3127 14.4999H11.8429C11.6773 14.4999 11.5418 14.3654 11.5495 14.1999C11.5631 13.9074 11.5976 13.6653 11.653 13.4736C11.7264 13.2123 11.8365 12.9855 11.9833 12.7933C12.1301 12.6011 12.3951 12.3205 12.7784 11.9515C13.1617 11.5749 13.4063 11.302 13.5124 11.1328C13.6265 10.9637 13.6836 10.7139 13.6836 10.3833C13.6836 10.0451 13.5572 9.74913 13.3044 9.49545C13.0516 9.23409 12.6846 9.1034 12.2035 9.1034C11.2122 9.1034 10.6739 9.6107 10.5886 10.6253C10.5747 10.7904 10.4423 10.9253 10.2766 10.9253H9.80909ZM12.6703 16.1998C12.6703 16.3655 12.536 16.4998 12.3703 16.4998H11.7974C11.6317 16.4998 11.4974 16.3655 11.4974 16.1998V15.7644C11.4974 15.5987 11.6317 15.4644 11.7974 15.4644H12.3703C12.536 15.4644 12.6703 15.5987 12.6703 15.7644V16.1998Z" fill="#fff"/>
</svg>
