<svg width="37" height="36" viewBox="0 0 37 36" fill="none" xmlns="http://www.w3.org/2000/svg">
<path d="M8.60574 11.778C10.7885 11.7088 12.9771 11.7088 15.1714 11.778" stroke="white" stroke-miterlimit="10" stroke-linecap="square"/>
<path d="M8.50166 15.6501C10.696 15.5808 12.8845 15.5808 15.0673 15.6501" stroke="white" stroke-miterlimit="10" stroke-linecap="square"/>
<path d="M18.7749 7.87144C23.6145 6.70952 28.6604 6.70952 33.5 7.87144V28.6598C28.6604 27.4979 23.6145 27.4979 18.7749 28.6598" stroke="white" stroke-miterlimit="10"/>
<path d="M19.2251 7.87144C14.3855 6.70952 9.33961 6.70952 4.5 7.87144V28.6598C9.33961 27.4979 14.3855 27.4979 19.2251 28.6598" stroke="white" stroke-miterlimit="10"/>
<path d="M8.60574 19.5305C10.7885 19.4612 12.9771 19.4612 15.1714 19.5305" stroke="white" stroke-miterlimit="10" stroke-linecap="square"/>
<path d="M8.60574 23.4113C10.7885 23.3421 12.9771 23.3421 15.1714 23.4113" stroke="white" stroke-miterlimit="10" stroke-linecap="square"/>
<path d="M29.3087 13.2145C28.654 13.2145 27.9939 13.2145 27.3392 13.2145C27.325 13.2145 27.3114 13.2088 27.3013 13.1988C27.2912 13.1887 27.2856 13.1751 27.2856 13.1608V11.1967C27.2856 11.1825 27.2912 11.1688 27.3013 11.1588C27.3114 11.1487 27.325 11.1431 27.3392 11.1431C27.9939 11.1431 28.654 11.1431 29.3087 11.1431C29.3229 11.1431 29.3366 11.1487 29.3466 11.1588C29.3567 11.1688 29.3624 11.1825 29.3624 11.1967V13.1608C29.3624 13.1751 29.3567 13.1887 29.3466 13.1988C29.3366 13.2088 29.3229 13.2145 29.3087 13.2145Z" fill="white"/>
<path d="M19 7.87158V28.2269" stroke="white" stroke-miterlimit="10"/>
</svg>
