<svg width="24" height="24" viewBox="0 0 24 24" fill="none" xmlns="http://www.w3.org/2000/svg">
<path d="M12.28 5.84761C13.5522 5.84761 14.7958 6.22486 15.8536 6.93166C16.9114 7.63846 17.7359 8.64306 18.2228 9.81843C18.7096 10.9938 18.837 12.2871 18.5888 13.5349C18.3406 14.7827 17.728 15.9288 16.8284 16.8284C15.9288 17.728 14.7827 18.3406 13.5349 18.5888C12.2871 18.837 10.9938 18.7096 9.81843 18.2228C8.64307 17.7359 7.63846 16.9114 6.93166 15.8536C6.22486 14.7958 5.84761 13.5522 5.84761 12.28C5.84761 10.574 6.52531 8.93792 7.73161 7.73161C8.93792 6.5253 10.574 5.84761 12.28 5.84761ZM12.28 5C10.8402 5 9.43264 5.42696 8.23545 6.2269C7.03826 7.02684 6.10517 8.16382 5.55416 9.49406C5.00315 10.8243 4.85899 12.2881 5.13989 13.7003C5.42079 15.1124 6.11414 16.4096 7.13227 17.4277C8.15039 18.4459 9.44756 19.1392 10.8597 19.4201C12.2719 19.701 13.7357 19.5568 15.0659 19.0058C16.3962 18.4548 17.5332 17.5217 18.3331 16.3245C19.133 15.1274 19.56 13.7198 19.56 12.28C19.56 11.324 19.3717 10.3773 19.0058 9.49406C18.64 8.61081 18.1037 7.80827 17.4277 7.13226C16.7517 6.45625 15.9492 5.92001 15.0659 5.55416C14.1827 5.1883 13.236 5 12.28 5Z" fill="#fff"/>
<path d="M13.4854 5.62158C13.4854 5.62158 16.047 12.28 13.4854 18.9196" stroke="#fff" stroke-width="0.9" stroke-miterlimit="10" stroke-linecap="round"/>
<path d="M11.3382 5.62158C11.3382 5.62158 8.71064 12.28 11.3382 18.9196" stroke="#fff" stroke-width="0.9" stroke-miterlimit="10" stroke-linecap="round"/>
<path d="M5.89478 10.4624C5.89478 10.4624 12.2895 10.8014 18.6654 10.4624" stroke="#fff" stroke-width="0.9" stroke-miterlimit="10" stroke-linecap="round"/>
<path d="M5.89478 14.2864C5.89478 14.2864 12.2895 13.9474 18.6654 14.2864" stroke="#fff" stroke-width="0.9" stroke-miterlimit="10" stroke-linecap="round"/>
</svg>
