<svg width="210" height="48" viewBox="0 0 210 48" fill="none" xmlns="http://www.w3.org/2000/svg">
<g clip-path="url(#clip0_3912_31777)">
<path d="M135.433 36.3158H127.896V32.3292H135.433V36.3158ZM122.226 25.6799C123.032 25.2176 123.8 24.6905 124.521 24.1037C125.473 25.1006 126.343 26.1727 127.123 27.3097C125.002 28.6656 122.677 29.6707 120.236 30.2862L121.591 34.4947C122.74 34.0522 123.862 33.5411 124.95 32.9643V41.0751H127.896V40.2334H135.433V41.0751H138.394V28.5264H131.324C133.778 26.3351 135.759 23.6664 137.147 20.6834V17.133H130.038C130.331 16.6085 130.587 16.0639 130.803 15.5032L127.322 15.0977C125.977 18.0797 123.614 20.4856 120.657 21.8847L122.226 25.6799ZM133.367 20.6834C132.402 22.3021 131.232 23.7887 129.885 25.1061C128.962 23.9254 127.957 22.8106 126.878 21.7699C127.203 21.4285 127.505 21.0655 127.781 20.6834H133.367Z" fill="#FAFAFA"/>
<path d="M139.32 22.6414H146.972V26.4136H140.973V41.0131H143.987V39.7276H153.085V41.036H156.146V26.4136H150.086V22.6414H157.837V18.4406H150.086V15.2422H146.972V18.4788H139.32V22.6414ZM153.093 35.6492H143.987V30.4614H153.085L153.093 35.6492Z" fill="#FAFAFA"/>
<path d="M173.53 20.0706H162.481V18.7316H173.53V20.0706ZM176.905 31.0814C176.297 29.6507 175.557 28.2801 174.694 26.9877H177.173V23.9271H162.481V22.8941H176.469V15.625H159.482V27.8677C159.482 33.4993 158.816 35.902 157.837 38.58L160.546 41.4341C161.211 39.812 162.481 36.736 162.481 27.883V27.0413H164.777C164.61 27.6182 164.397 28.181 164.142 28.7247H162.795L162.994 32.0608H163.912C164.54 32.0608 167.271 31.9154 167.838 31.8925V33.2621H163.04V36.1162H167.838V37.6465H162.214V40.8679H177.188V37.6312H170.837V36.1009H176.461V33.2086H170.837V31.6782C172.505 31.5328 172.903 31.4793 173.485 31.4028C173.806 32.0991 173.928 32.3745 174.25 33.132L176.905 31.0814ZM171.082 27.1867C171.399 27.6091 171.693 28.0485 171.962 28.5028C170.436 28.639 168.903 28.6951 167.371 28.6711C167.815 27.6917 167.891 27.4698 168.075 26.9877H171.396L171.082 27.1867Z" fill="#FAFAFA"/>
<path d="M97.7635 41.1351L87.3113 14.8516H80.7461L70.2939 41.1351H77.0274L84.0287 20.5138L91.03 41.1351H97.7635Z" fill="#FAFAFA"/>
<path d="M86.791 32.168H81.2588V37.4706H86.791V32.168Z" fill="#FAFAFA"/>
<path d="M66.1771 25.1201C66.246 26.6505 66.4908 28.3874 67.2024 29.4127L68.0364 28.6475C67.7197 28.186 67.4985 27.6656 67.3861 27.1172C67.2284 26.4161 67.1412 25.7009 67.1259 24.9824L66.1771 25.1201ZM64.3177 29.4051C65.0748 28.1079 65.444 26.6208 65.3813 25.1201L64.4631 25.0206C64.4473 25.7543 64.3602 26.4846 64.203 27.2014C64.0972 27.7415 63.8724 28.2512 63.5449 28.6935L64.3177 29.4051ZM68.9087 14.8669V41.1351H63.0782V29.9636H51.5241V41.1351H45.6553V14.8516H51.5241V24.7375H63.0782V14.8516L68.9087 14.8669Z" fill="#FAFAFA"/>
<path d="M103.472 25.0206H102.531V29.3974C102.941 29.4094 103.349 29.32 103.717 29.1373C104.106 28.9184 104.437 28.6085 104.681 28.2341C104.925 27.8597 105.074 27.4319 105.117 26.9871L104.237 26.5127C104.176 26.9642 104.069 27.8212 103.472 28.1119V25.0206ZM101.987 25.189H101.054V26.352C101.068 26.7811 101.029 27.2102 100.939 27.6299C100.882 28.0332 100.703 28.4096 100.426 28.7088L101.192 29.5351C101.957 28.7011 102.018 27.0713 102.018 26.2755L101.987 25.189ZM120.895 35.7713V41.1274H99.9443V14.8516H105.377V35.7713H120.895Z" fill="#FAFAFA"/>
<path d="M24.5366 33.7051C28.3089 40.4921 35.1495 43.0325 37.5445 38.2349C35.1495 39.5892 29.7704 38.8087 24.5366 33.7051Z" fill="#FAFAFA"/>
<path d="M27.4902 35.5123C35.6087 40.9603 42.082 37.6701 42.1355 25.5039C42.0208 31.059 36.1443 39.7284 27.4902 35.5123Z" fill="#FAFAFA"/>
<path d="M22.2642 4.62213C24.6362 6.01474 26.6486 11.0648 24.8428 18.1503C28.8216 11.5392 27.6203 4.29311 22.2642 4.62213Z" fill="#FAFAFA"/>
<path d="M24.9349 14.6918C25.5853 4.9359 19.5022 0.957026 8.94287 7.04011C13.8093 4.35437 24.2462 5.11189 24.9349 14.6918Z" fill="#FAFAFA"/>
<path d="M11.2152 25.6651C3.50999 25.5274 -2.15991 30.1872 0.763032 34.6635C0.763032 31.9089 4.15273 27.6392 11.1846 25.6651" fill="#FAFAFA"/>
<path d="M8.17747 27.3164C-0.599008 31.6243 -0.996895 38.8857 9.52417 44.9994C4.77247 42.1301 0.204419 32.7032 8.17747 27.3164Z" fill="#FAFAFA"/>
<path d="M7.75669 17.6367C4.19865 20.0011 7.8026 21.3707 10.7485 22.1818C9.32987 20.9905 8.29004 19.4108 7.75669 17.6367Z" fill="#FAFAFA"/>
<path d="M19.3184 40.7143C23.1442 42.6196 22.5321 38.809 21.7669 35.8555C21.4413 37.679 20.5903 39.3677 19.3184 40.7143Z" fill="#FAFAFA"/>
<path d="M33.5274 19.1679C33.2596 14.8982 30.2755 17.3315 28.0947 19.4816C29.8358 18.847 31.7249 18.7379 33.5274 19.1679Z" fill="#FAFAFA"/>
<path d="M10.3508 25.114C13.006 25.1905 15.8218 25.4965 17.6735 26.7208C18.7063 27.3603 19.5927 28.2103 20.2751 29.2153C22.8384 32.6891 21.8054 38.688 25.1109 41.6799C26.6413 43.0495 29.7555 42.973 32.9309 41.3738C29.6101 40.8382 26.8096 38.8028 24.5141 34.7168C23.2057 32.3754 22.1421 30.0723 22.2186 27.5625C22.2514 26.3409 22.5463 25.1405 23.0832 24.0427C25.4935 19.0538 30.4441 18.48 31.4542 13.6441C31.875 11.647 30.2529 8.97657 27.2764 7.02539C28.4777 10.1702 28.1333 13.6441 25.746 17.6612C24.3687 19.9567 22.7925 22.0609 20.6806 23.1934C19.6351 23.7441 18.4908 24.0822 17.3139 24.1881C11.7511 24.6472 8.55269 20.5995 4.01525 22.1298C2.07937 22.8185 0.579642 25.5348 0.373047 29.0928C2.50021 26.4836 5.67566 25.0374 10.3202 25.114" fill="#FAFAFA"/>
<path d="M33.6655 19.8869L32.3724 19.7109C33.6707 22.294 34.1153 25.2226 33.6423 28.0746C33.1692 30.9267 31.8029 33.5549 29.7402 35.5805L31.0181 35.8407C31.7531 35.0375 32.3996 34.1576 32.9463 33.2162C34.1049 31.2071 34.7739 28.9533 34.8988 26.6375C35.0238 24.3217 34.6013 22.009 33.6655 19.8869Z" fill="#FAFAFA"/>
<path d="M20.1983 11.0873C17.8813 11.088 15.597 11.635 13.531 12.6839C11.465 13.7329 9.67547 15.2542 8.30762 17.1244L8.79733 18.3028C10.384 15.8879 12.6964 14.0391 15.4013 13.0228C18.1062 12.0066 21.0639 11.8754 23.8482 12.6482L23.4426 11.4163C22.378 11.1758 21.2898 11.0552 20.1983 11.0567" fill="#FAFAFA"/>
<path d="M8.41464 32.6648C7.80031 31.5962 7.3295 30.4514 7.01439 29.2598L6.11914 30.2315C6.97472 32.9724 8.61234 35.4037 10.8308 37.2266C13.0493 39.0494 15.7519 40.1846 18.6067 40.4924L19.3719 39.4671C17.126 39.3255 14.95 38.6302 13.0382 37.4433C11.1263 36.2564 9.53788 34.6147 8.41464 32.6648Z" fill="#FAFAFA"/>
<path d="M52.213 5.88468V6.59629C51.5528 7.15139 50.8189 7.61233 50.0322 7.96594V8.03481H53.6285V8.86884H50.0322V10.3992C50.0199 10.5826 49.942 10.7554 49.8128 10.8861C49.6835 11.0167 49.5115 11.0965 49.3283 11.1108H47.6526L47.4919 10.2002H48.8692C49.1064 10.2002 49.1064 10.0778 49.1064 9.92477V8.86884H45.5254V8.03481H49.1064V7.36911H49.4813C49.9424 7.22069 50.3727 6.98997 50.7515 6.68811H46.9256V5.88468H52.213ZM46.8568 4.43086C46.7189 4.06511 46.55 3.71183 46.3518 3.37493L47.1782 3.06887C47.4541 3.46364 47.6706 3.89674 47.8209 4.35435L47.6296 4.43086H49.3436C49.1801 4.0469 48.983 3.67817 48.7544 3.32902L49.6037 3C49.8687 3.4213 50.0868 3.87032 50.2541 4.33904L49.971 4.43086H51.356C51.5875 3.97199 51.7771 3.49308 51.9222 3L52.9093 3.29842C52.7482 3.68172 52.5589 4.05257 52.343 4.40791H53.4296V6.38969H52.5649V5.24194H46.6196V6.38969H45.7549V4.43086H46.8568Z" fill="#FAFAFA"/>
<path d="M54.2788 8.02079C54.8084 7.24565 55.197 6.38306 55.4266 5.47278H54.3247V4.65405H55.5107V3.0625H56.3295V4.65405H57.2324V5.47278H56.3524V5.97014C56.6637 6.56757 57.0635 7.11447 57.5384 7.5923L57.0946 8.42633C56.7889 8.06884 56.5317 7.67265 56.3295 7.24797V11.1274H55.5337V7.12554C55.3247 7.85225 55.0129 8.54536 54.6078 9.18385L54.2788 8.02079ZM61.5938 6.98016C61.3316 7.77507 60.9243 8.51447 60.3925 9.16089C61.0306 9.68656 61.7825 10.056 62.5885 10.2398L62.1677 11.0968C61.2797 10.8369 60.456 10.3938 59.7498 9.79598C59.0487 10.3719 58.2471 10.8129 57.3854 11.0968L56.9339 10.3316C57.7395 10.0948 58.4908 9.70224 59.1453 9.17619C58.629 8.52394 58.249 7.77453 58.0281 6.97251L58.7933 6.74296C58.9918 7.40128 59.3167 8.01464 59.7498 8.54876C60.1954 8.00403 60.5307 7.37767 60.7368 6.7047L61.5938 6.98016ZM59.2983 5.29679C58.8833 5.94752 58.3326 6.50087 57.6838 6.91895L57.0717 6.29916C57.6859 5.96759 58.211 5.49244 58.602 4.91421L59.2983 5.29679ZM59.3901 3.0625H60.2624V3.88888H62.4125V4.70761H57.3165V3.88888H59.3901V3.0625ZM61.0199 4.87595C61.4494 5.40897 61.967 5.86446 62.5503 6.22264L61.9841 6.9266C61.3164 6.5054 60.7432 5.95048 60.3007 5.29679L61.0199 4.87595Z" fill="#FAFAFA"/>
<path d="M65.351 8.11261C64.8924 9.14323 64.3228 10.1208 63.6523 11.0279L63.0708 10.1709C63.7084 9.38252 64.2243 8.50301 64.6011 7.56169L65.351 8.11261ZM63.5452 5.41157C64.0769 5.63912 64.5887 5.91041 65.0755 6.22264L64.5476 6.98781C64.1123 6.65601 63.6398 6.37611 63.1397 6.15378L63.5452 5.41157ZM63.9507 3.0625C64.4606 3.29572 64.9495 3.57219 65.4122 3.88888L64.846 4.69996C64.4145 4.34628 63.9508 4.03375 63.461 3.76645L63.9507 3.0625ZM68.098 7.35509C67.8018 8.26045 67.4066 9.13036 66.9196 9.94901C67.9067 9.94901 68.2892 9.91076 69.6742 9.77303C69.4137 9.30904 69.117 8.86641 68.7866 8.44928L69.5518 8.01314C70.2435 8.83217 70.8084 9.7504 71.2275 10.7371L70.3322 11.1503C70.2251 10.8902 70.1486 10.7142 70.0338 10.4846C68.7943 10.6912 66.3534 10.8213 65.4046 10.8519L65.2745 10.0026H65.9249C66.4089 9.17689 66.7844 8.29219 67.042 7.3704H65.4122V6.53636H67.899V5.09785H65.7565V4.27147H67.899V3.0625H68.7637V4.27147H70.9061V5.09785H68.7637V6.53636H71.2351V7.35509H68.098Z" fill="#FAFAFA"/>
<path d="M75.5431 3.07617H76.5148V4.1321C76.4763 5.38134 76.7978 6.6153 77.4408 7.68702C78.0838 8.75874 79.0214 9.62302 80.1417 10.1769L79.5755 11.0492C78.703 10.5766 77.9383 9.92791 77.3297 9.14418C76.7212 8.36045 76.2822 7.45883 76.0404 6.49647C75.8089 7.45997 75.3763 8.36363 74.771 9.14824C74.1657 9.93284 73.4015 10.5807 72.5283 11.0492L71.9238 10.1922C73.1832 9.59677 74.205 8.5939 74.8238 7.34581C75.3055 6.3524 75.5666 5.26652 75.589 4.16271L75.5431 3.07617Z" fill="#FAFAFA"/>
<path d="M84.8398 3.44336H91.053V11.0491H90.1348V10.5977H85.781V11.0491H84.8398V3.44336ZM90.1348 4.33095H85.781V6.54229H90.1348V4.33095ZM90.1348 7.39163H85.781V9.68713H90.1348V7.39163Z" fill="#FAFAFA"/>
<path d="M92.7823 4.47774H96.3556V3.04688H97.2432V4.47774H100.824V5.35003H97.6334C98.3574 6.80417 99.508 8.00275 100.931 8.78564L100.434 9.74975C99.0764 8.80907 97.9788 7.54037 97.2432 6.06164V8.80859H99.0031V9.65793H97.2432V11.0888H96.3556V9.65793H94.6493V8.80859H96.3556V6.06164C95.6267 7.53395 94.5336 8.79558 93.1801 9.72679L92.6675 8.8698C94.08 8.02494 95.2236 6.7964 95.9654 5.32708H92.7823V4.47774Z" fill="#FAFAFA"/>
<path d="M105.254 10.2538C106.027 9.93622 106.71 9.43448 107.244 8.79232C106.877 8.1669 106.618 7.48393 106.479 6.77228C106.372 6.94062 106.341 7.00183 106.203 7.20842L105.507 6.56568C105.619 6.4173 105.722 6.26135 105.813 6.09893H104.612C104.474 6.23666 104.313 6.41265 103.961 6.71872H105.492V7.43032C105.162 7.76126 104.797 8.05623 104.405 8.31027V8.47095L106.02 8.2567V9.02187C105.66 9.09074 105.316 9.1596 104.405 9.28968V10.4374C104.409 10.5187 104.397 10.6 104.369 10.6764C104.341 10.7528 104.298 10.8227 104.242 10.882C104.186 10.9413 104.119 10.9888 104.044 11.0215C103.97 11.0542 103.89 11.0716 103.808 11.0725H102.53L102.37 10.2538H103.296C103.41 10.2538 103.517 10.2538 103.517 10.0548V9.3815C102.752 9.46567 102.171 9.51158 101.627 9.55749L101.559 8.72346C102.14 8.72346 102.706 8.6699 103.517 8.56277V7.96594H103.755C103.974 7.81131 104.174 7.63155 104.351 7.43032H103.005C102.656 7.67631 102.294 7.90116 101.918 8.10367L101.536 7.3385C102.225 7.01178 102.869 6.59495 103.449 6.09893H101.627V5.2955H103.204V4.53034H101.842V3.76517H103.204V3.06121H103.969V3.76517H104.956V4.3773C105.203 4.04248 105.416 3.68359 105.591 3.30607L106.356 3.65039C106.08 4.24024 105.73 4.79295 105.316 5.2955H105.882V5.98416C106.346 5.04677 106.648 4.03793 106.777 3L107.626 3.09182C107.626 3.39789 107.542 3.77282 107.427 4.32374H109.623V5.22664H109.21C109.171 6.46776 108.852 7.68395 108.277 8.78467C108.734 9.32179 109.247 9.80909 109.807 10.2385L109.294 11.0725C108.711 10.6415 108.195 10.1257 107.764 9.54219C107.222 10.1612 106.574 10.6793 105.851 11.0725L105.254 10.2538ZM104.061 4.53034V5.2955H104.313C104.545 5.05612 104.76 4.80041 104.956 4.53034H104.061ZM107.221 5.24194C107.152 5.44854 107.129 5.5021 107.091 5.60157C107.155 6.44474 107.387 7.26668 107.772 8.0195C108.15 7.14055 108.36 6.19841 108.392 5.24194H107.221Z" fill="#FAFAFA"/>
<path d="M117.443 6.30649C117.196 6.06216 116.924 5.84419 116.632 5.6561C112.493 5.96982 112.294 5.99277 110.74 6.00042L110.672 5.18935H112.37C112.539 4.96013 112.693 4.71984 112.829 4.47009H110.427V3.70492H114.008V3.04688H114.88V3.65901H118.453V4.42418H116.303C116.949 4.77868 117.554 5.20198 118.109 5.6867L117.443 6.30649ZM117.443 6.37536V10.2012C117.461 10.3185 117.451 10.4382 117.415 10.551C117.378 10.6638 117.316 10.7666 117.233 10.8512C117.149 10.9358 117.048 10.9999 116.936 11.0385C116.823 11.077 116.704 11.089 116.586 11.0735H115.14L114.941 10.2012H116.303C116.525 10.2012 116.563 10.2012 116.563 9.98695V9.5508H112.347V11.0811H111.467V6.37536H117.443ZM112.355 7.59197H116.571V7.06401H112.355V7.59197ZM112.355 8.83155H116.571V8.28828H112.355V8.83155ZM115.921 4.42418H113.862C113.717 4.66904 113.556 4.90419 113.38 5.12813L115.676 5.04396C115.569 4.9751 115.485 4.92154 115.217 4.77615L115.921 4.42418Z" fill="#FAFAFA"/>
<path d="M120.634 9.54933C120.409 10.1072 120.094 10.6242 119.701 11.0797L119.104 10.5287C119.438 10.135 119.697 9.68389 119.869 9.19736L120.634 9.54933ZM119.487 3.27495H122.586V9.03667H119.487V3.27495ZM120.321 4.93537H121.759V4.08603H120.321V4.93537ZM120.321 6.55753H121.759V5.69289H120.321V6.55753ZM120.321 8.22559H121.759V7.338H120.321V8.22559ZM122.096 9.25092C122.402 9.70118 122.659 10.1835 122.861 10.6894L122.05 10.9649C121.876 10.4502 121.634 9.96126 121.331 9.51108L122.096 9.25092ZM122.67 8.79182C123.823 7.91165 124.756 6.77461 125.394 5.47099H122.861V4.5987H125.485V3.06836H126.388V4.5987H127.299V5.47099H126.388V9.88601C126.388 10.7277 126.327 11.0644 125.424 11.0644H124.078L123.902 10.1768H124.973C125.485 10.1768 125.485 10.0237 125.485 9.66411V6.69526C124.935 7.82719 124.153 8.83084 123.19 9.64115L122.67 8.79182Z" fill="#FAFAFA"/>
<path d="M128.378 3.35156H135.785V11.1027H134.905V10.7584H129.266V11.1027H128.378V3.35156ZM129.266 9.92436H134.905V4.17794H129.266V9.92436ZM129.694 5.42517H132.839V4.46871H133.688V5.42517H134.538V6.19034H133.688V8.85312C133.689 8.96255 133.667 9.07091 133.622 9.17088C133.578 9.27085 133.512 9.36011 133.43 9.43263C133.348 9.50515 133.252 9.55925 133.147 9.59128C133.042 9.62331 132.932 9.63252 132.824 9.61829H131.714L131.607 8.746H132.632C132.839 8.746 132.869 8.67713 132.869 8.5394V6.19799H129.694V5.42517ZM130.972 8.61592C130.702 8.0019 130.358 7.42362 129.947 6.89429L130.658 6.4658C131.083 6.97841 131.447 7.5381 131.745 8.13386L130.972 8.61592Z" fill="#FAFAFA"/>
</g>
<defs>
<clipPath id="clip0_3912_31777">
<rect width="210" height="48" fill="white"/>
</clipPath>
</defs>
</svg>
